<svg xmlns="http://www.w3.org/2000/svg" width="100" height="67"><path d="M0 0h100v67H0zm0 0" style="stroke:none;fill-rule:nonzero;fill:#fdfdfd;fill-opacity:1"/><path d="M31.758 16.473h.945c1.453-.004 2.895.023 4.34.148l.184.012q.52.046 1.035.105c.047.004.097.012.148.016a30 30 0 0 1 2.867.453q.09.02.18.04c2.938.628 5.723 2.44 7.438 4.933l.144.215c1.512 2.25 2.473 5.093 1.961 7.824-.523 2.61-1.898 4.773-3.996 6.422q-.053.044-.113.09c-.668.527-1.368.984-2.098 1.414l.434-.141.132-.047q.544-.183 1.075-.406c.18-.059.316-.078.507-.059q.031.03.063.067c.094.011.187.027.281.035.969.117 1.887.261 2.754.738.297.14.617.203.938.273v.13c-.07-.005-.07-.005-.141-.005-1.285-.035-1.285-.035-2.527.266-.09.027-.09.027-.18.059-.879.308-1.488.953-1.906 1.773v.133q.034-.051.062-.098c.637-.918 1.621-1.37 2.684-1.578.324-.047.648-.05.972-.05h.22a5.4 5.4 0 0 1 1.663.285l.168.039c1.52.367 2.88 1.668 3.672 2.972.723 1.258 1 2.461.984 3.903v.332c-.003.265-.003.535-.007.8.308.172.308.172.648.223h.14c.071-.004.071-.004.145-.004.047 0 .098-.004.149-.004.246-.004.472-.02.707-.082.625-.172 1.465-.156 2.05.13.45.265.915.683 1.11 1.179.062.426.031.773-.227 1.125-.46.535-1.054.793-1.758.851-.898.016-1.53-.242-2.187-.84-.594-.535-1.238-.636-2.016-.613.012.461.23.703.524 1.047l.125.18c.36.39.883.59 1.355.816.293.16.524.332.715.61l.082.117c.215.36.168.816.129 1.222-.172.563-.61.86-1.105 1.125-.793.372-1.657.329-2.473.051-.54-.207-.98-.547-1.246-1.066-.14-.438-.137-.95.039-1.375.172-.418.14-.754-.012-1.172-.137-.316-.293-.547-.605-.703-.309-.016-.578.023-.825.215-.32.308-.562.746-.632 1.187-.004.203.027.367.09.559.042.504.058.965-.262 1.375-.547.605-1.239.87-2.04.933-.757.024-1.484-.148-2.062-.672-.355-.44-.484-.796-.476-1.367.043-.414.25-.718.55-1a4.2 4.2 0 0 1 1.329-.699c.414-.144.73-.39 1.074-.664q.07-.053.144-.105c.211-.168.297-.243.371-.508 0-.086 0-.086.004-.172-.593-.04-1.066.015-1.539.402q-.168.151-.332.309c-.34.324-.683.472-1.125.597l-.113.036c-.703.14-1.438.082-2.035-.32-.324-.255-.598-.602-.649-1.024-.054-.438.086-.754.325-1.113.324-.38.703-.57 1.171-.72.04-.01.079-.027.118-.038.214-.04.425-.04.644-.04h.14c.24.005.458.012.684.079.746.199 1.825.148 2.516-.196.04-.328-.04-.515-.215-.78a3.9 3.9 0 0 0-.89-.79c-.567.028-1.125.156-1.684.258-3.281.59-6.418.7-9.711.07q-.083-.018-.164-.03c-1.531-.302-3.063-.903-4.414-1.677-.379-.133-.762.032-1.121.168-.07.024-.07.024-.137.051-.621.246-1.406.66-1.781 1.227v.261c.246.16.496.149.777.153.711.03 1.438.156 1.95.695.34.379.43.586.425 1.105-.05.38-.25.59-.535.825-.715.492-1.465.578-2.309.453-.535-.125-.984-.485-1.285-.942q-.104-.228-.195-.457c-.113-.234-.297-.347-.52-.46a1.7 1.7 0 0 0-.586 0c-.21.203-.277.386-.296.671.007.25.078.414.199.633.18.336.226.61.16.988-.152.508-.512.813-.969 1.063-.715.324-1.664.387-2.414.148-.46-.199-.918-.55-1.117-1.023-.105-.48-.066-.777.164-1.207.309-.473.734-.68 1.23-.914.243-.133.36-.254.504-.489v-.261a2.5 2.5 0 0 0-1.175.195q-.083.031-.164.063c-.754.296-1.45.66-2.125 1.113-.72.476-1.625.586-2.47.418-.48-.153-.91-.434-1.179-.875-.14-.34-.183-.695-.07-1.047.21-.48.531-.809 1.012-1.004a5 5 0 0 1 .312-.105q.095-.036.195-.067c.086-.008.176-.008.266-.008.05 0 .102-.004.152-.004q.083.005.164.004.078.001.16-.004c.051 0 .102.004.153.004h.14c.141.008.262.036.395.075a5.6 5.6 0 0 0 2.148-.262c-.414-.184-.859-.176-1.296-.102-.641.106-1.368.086-1.954-.21-.234-.172-.308-.262-.394-.54-.04-.343-.047-.62.102-.937.433-.48.867-.805 1.527-.856.848-.035 1.453.18 2.14.668.348.242.715.364 1.145.348l.23-.008c.098-.234.172-.472.239-.715.5-1.644 1.625-2.746 3.015-3.668q-.064-.022-.129-.047c-2.66-.93-5.085-2.21-7.132-4.18-.09-.085-.176-.171-.266-.257-1.875-1.813-3.039-4.328-3.105-6.945a9.9 9.9 0 0 1 .8-4.012c.032-.078.032-.078.067-.156.535-1.258 1.297-2.367 2.215-3.371.105-.114.199-.227.296-.348a6 6 0 0 1 .68-.64c.063-.055.121-.11.188-.169 3.015-2.656 6.554-3.066 10.41-3.054m0 0" style="stroke:none;fill-rule:nonzero;fill:#020202;fill-opacity:1"/><path d="M62.414 10.844c.078 0 .078 0 .156.004 2.93.015 5.809.777 8.395 2.172q.111.064.222.12a17 17 0 0 1 3.551 2.63q.06.052.117.109c2.04 1.941 3.715 4.8 3.81 7.676.05 2.765-.724 5.293-2.56 7.394l-.144.168c-.531.606-1.09 1.188-1.742 1.664h-.13c-.093-.12-.093-.12-.198-.289-.762-1.113-1.754-1.676-2.926-2.265.27-.305.582-.497.93-.707.082-.047.082-.047.164-.098.136-.082.27-.16.402-.242-.258-1.098-1.242-1.848-2.148-2.418-.77-.477-1.57-.848-2.41-1.18a7 7 0 0 0-.235-.094c-.414-.156-.844-.258-1.273-.363l-.141-.035c-1.477-.371-2.934-.5-4.453-.496h-.524c-.957 0-1.898.035-2.847.183q-.104.018-.215.035c-.754.125-1.488.305-2.227.508q-.082.024-.172.047c-1.168.324-2.234.781-3.296 1.36-.083.046-.083.046-.168.09q-.071.04-.149.081c-.121.059-.121.059-.25.059l-.023-.11c-.149-.683-.309-1.347-.575-1.992-.125-.3-.125-.3-.054-.515.187-.063.367-.113.558-.16.055-.012.114-.028.168-.043l.344-.082q.228-.06.457-.117a15.4 15.4 0 0 1 2.016-.395q.426-.052.847-.121c.735-.125 1.47-.2 2.211-.266q.177-.013.352-.031.352-.03.703-.062.543-.05 1.086-.098.083-.011.164-.016c1.95-.187 4.23-.687 5.547-2.273.387-.52.547-1.028.566-1.668q.004-.083.008-.164l.012-.39h-.13l-.022-.134c-.266-1.172-1.157-1.968-2.122-2.597-1.757-1.11-3.761-1.48-5.812-1.485-1.203-.004-1.203-.004-1.688-.422q-.044-.058-.09-.117c-.042-.058-.042-.058-.09-.117-.199-.289-.171-.613-.136-.953.293-.617.848-.84 1.445-1.059.555-.187 1.11-.316 1.68-.425q.1-.022.207-.043c.95-.176 1.867-.266 2.832-.258m0 0" style="stroke:none;fill-rule:nonzero;fill:#030303;fill-opacity:1"/><path d="M21.469 27.254c.066.004.066.004.136.004.618.02 1.079.238 1.508.68.258.296.258.296.258.46q-.095-.001-.195.004c-.578.02-1.043.055-1.465.489-.113.156-.113.156-.098.355l.157-.094c.312-.183.535-.183.89-.187.055 0 .106-.004.164-.004.512-.008.922.125 1.293.488q.105.116.211.23c.852.895 2.113 1.762 3.344 2.016.152.04.258.075.387.168.117.235.156.477.203.73.031.141.066.286.097.43q.024.105.047.215c.285 1.242.887 2.64 1.809 3.535.2.196.312.305.336.59q-.005.219-.016.438c0 .492.258.969.586 1.324a3.2 3.2 0 0 0 2.266.871h.175c.41-.008.762-.043 1.137-.215.067-.027.13-.058.2-.086.714-.336 1.234-.758 1.515-1.52.05-.23.05-.23.055-.48.039-.32.203-.453.445-.648l.234-.207.114-.102c1.258-1.148 1.886-2.992 2.258-4.613.062-.016.128-.027.195-.043a8.6 8.6 0 0 0 3.558-1.746q.112-.09.223-.18c.106-.082.207-.168.313-.25.402-.27.836-.324 1.308-.265.328.09.63.199.91.39-.238-.465-.515-.683-.976-.914q-.181-.022-.364-.039a3 3 0 0 1-.199-.015c-.074-.004-.074-.004-.152-.012.187-.418.605-.719 1.008-.91.508-.164 1.246-.188 1.73.054.403.278.805.68.946 1.16.234 1.352-.454 2.645-1.192 3.73-.344.49-.73.946-1.125 1.395-.047.051-.047.051-.09.106-.402.453-.816.875-1.277 1.27q-.058.05-.121.101a19 19 0 0 1-2.028 1.535 6 6 0 0 0-.199.133c-1.675 1.074-3.535 1.863-5.445 2.41-.047.012-.09.028-.137.04-.328.09-.652.132-.988.163v.133c1.469.07 1.469.07 2.863-.2q.181-.016.364-.034c.683-.059 1.328-.207 1.988-.395.12-.027.12-.027.316-.027q.023.083.04.164c.12.46.265.879.48 1.305q.029.064.062.129c.153.292.328.558.528.824-.325.761-1.23 1.129-1.95 1.425-.996.391-1.964.489-3.02.497h-.136c-.586.007-1.105-.047-1.668-.223-.066-.016-.066-.016-.133-.035-.668-.192-1.273-.485-1.882-.813q-.106-.056-.211-.113c-.989-.555-2.598-1.648-2.98-2.766l.151.024c.536.09 1.067.14 1.606.172v-.133a4 4 0 0 1-.215-.016c-.371-.047-.707-.176-1.058-.304q-.105-.042-.215-.082c-1.993-.743-3.887-1.715-5.543-3.063q-.089-.074-.184-.148c-1.02-.82-2.027-1.743-2.812-2.797-.043-.059-.09-.114-.133-.172a12.5 12.5 0 0 1-1.688-2.903c-.047-.105-.047-.105-.09-.214-.246-.676-.343-1.582-.043-2.258.364-.59.915-.969 1.614-.961m0 0" style="stroke:none;fill-rule:nonzero;fill:#fcfcfc;fill-opacity:1"/><path d="M70.508 30.816c.078.028.078.028.16.051 1.102.387 2.176 1.285 2.836 2.242l.082.118c.68.984 1.215 2.046 1.394 3.242l.024.164c.058.394.086.785.062 1.187.528-.062.922-.172 1.368-.46.683-.438 1.261-.65 2.086-.481.546.156.953.434 1.28.906.145.29.138.578.04.887-.13.262-.274.375-.54.48-.245.075-.491.07-.75.075q-.082 0-.171.003c-.18.004-.363.004-.543.008-.125 0-.246.004-.371.004q-.45.011-.903.016v.133c1.313.277 1.313.277 2.645.195.856-.156 1.727-.16 2.48.309.34.242.641.539.801.933.059.434.051.832-.21 1.195-.555.551-1.258.707-2.012.723-.871-.004-1.465-.332-2.192-.77-.539-.312-1.082-.519-1.676-.703q-.246-.08-.492-.168c-.57-.199-1.074-.343-1.687-.277.05.313.148.512.39.719.176.105.356.195.54.293.374.215.695.531.828.95.054.464.066.878-.223 1.265-.43.46-.988.761-1.625.8a6 6 0 0 1-.36 0h-.187c-.73-.023-1.262-.242-1.785-.757-.324-.36-.356-.688-.344-1.157.05-.355.238-.617.488-.87.032-.294.051-.563-.093-.825-.254-.137-.477-.14-.754-.09-.356.184-.52.39-.7.742-.265.47-.69.723-1.187.891-.723.164-1.562.117-2.223-.238-.261-.188-.5-.45-.644-.742-.074-.868-.074-.868.168-1.207.469-.504.984-.75 1.676-.782q.258-.007.523-.008c.356-.007.813-.019 1.086-.292.027-.16.027-.16 0-.329-.11-.105-.11-.105-.266-.18-.058-.03-.12-.066-.18-.097l-.206-.113c-.16-.094-.317-.184-.473-.278a1 1 0 0 0-.125-.074 10 10 0 0 1-.988-.695c-.16-.121-.266-.195-.47-.203-.21.094-.35.219-.519.375-1.894 1.668-4.101 2.957-6.343 4.082-.078.035-.078.035-.157.078-.613.305-1.246.57-1.879.832q-.117.045-.234.098-.106.041-.219.09-.098.035-.195.078a2.6 2.6 0 0 1-.508.129c-.015-.032-.035-.063-.05-.094-.344-.66-.696-1.242-1.188-1.801-.043-.066-.086-.129-.129-.2.098-.034.098-.034.2-.073q.137-.049.273-.102l.129-.047c.414-.152.816-.324 1.222-.496-.078.004-.156.004-.234.008l-.863.012q-.182 0-.371.007-.268.005-.536.004l-.168.008c-.285 0-.394-.008-.625-.195-.066-.082-.066-.082-.132-.172a4.4 4.4 0 0 0-.653-.457c.215-.07.274-.059.485-.004.382.082.754.09 1.148.086h.215c.586-.008 1.156-.05 1.734-.149l.153-.023a11.1 11.1 0 0 0 4.793-2.004q.057-.035.109-.078c.527-.387 1.02-.809 1.488-1.266l.281-.27c.282-.265.282-.265.422-.609-.015-.132-.015-.132-.05-.277-.207-1.062.07-2.02.617-2.93.043.024.086.043.129.067q-.047.087-.098.176c-.148.359-.125.73-.121 1.113-.004.105-.004.105-.004.219.004.699.113 1.343.492 1.937q.038.063.074.125c.243.383.547.8.957 1.008a4 4 0 0 0-.101-.168c-.512-.863-.82-1.645-.824-2.656-.004-.098-.004-.098-.004-.196-.004-.933.351-1.734.988-2.41.223-.21.453-.375.723-.523q.072-.042.144-.082c.813-.38 2.028-.285 2.852.015m0 0" style="stroke:none;fill-rule:nonzero;fill:#020202;fill-opacity:1"/><path d="M31.406 18.656q.251.183.496.383c.094.078.094.078.192.156.87.73 1.57 1.98 1.676 3.114.09 1.636-.079 3.011-1.153 4.32l-.086.121c-.804 1.05-2.199 1.703-3.472 1.887-1.704.164-3.079-.274-4.438-1.293l-.14-.125v-.133q-.099-.031-.196-.063c-1.164-1.253-1.562-2.777-1.512-4.46.079-1.29.801-2.536 1.723-3.407 1.965-1.636 4.723-1.883 6.91-.5M41.602 18.582l.125.04a5.28 5.28 0 0 1 3.039 2.651c.574 1.336.68 2.805.156 4.18-.04.102-.04.102-.078.211a4.95 4.95 0 0 1-2.2 2.535l-.183.106c-1.336.722-2.895.867-4.36.437-.69-.226-1.285-.594-1.84-1.066l-.144-.113c-.941-.778-1.55-2.012-1.676-3.223-.07-1.477.09-2.883 1.094-4.035l.14-.153c.079-.086.079-.086.157-.175.629-.68 1.422-1.215 2.32-1.461q.093-.03.192-.059a5.75 5.75 0 0 1 3.258.125m0 0" style="stroke:none;fill-rule:nonzero;fill:#fcfcfc;fill-opacity:1"/><path d="M74.805 21.656q.298.222.586.461c.062.047.062.047.125.098q.168.14.332.293.053.051.113.11c.234.26.305.476.32.827-.058 1.27-.582 2.45-1.347 3.446l-.114.156-.34.433q-.052.061-.097.122c-.246.3-.524.546-.817.796q-.146.124-.293.254c-.074.07-.152.137-.226.203-.254-.222-.371-.46-.512-.761q-.07-.14-.14-.285l-.067-.137c-.922-1.863-2.824-3.3-4.726-4.047a20 20 0 0 0-1.165-.324q-.088-.023-.183-.047-.076-.017-.164-.04a.67.67 0 0 1-.336-.25c-.024-.16-.024-.16 0-.323.09-.114.09-.114.219-.215l.14-.117.164-.13c.52-.417 1.024-.843 1.457-1.359.262-.222.559-.312.887-.406l.121-.035c1.992-.516 4.403.113 6.063 1.277m0 0" style="stroke:none;fill-rule:nonzero;fill:#faf9fa;fill-opacity:1"/><path d="M56.652 26.023c1.188 0 2.211.25 3.114 1.063q.064.057.129.11c.402.363.671.827.75 1.366.02.56-.055 1.043-.41 1.485-.41.437-.84.664-1.419.785l-.156.035c-.789.156-1.504.094-2.281-.117q-.095-.023-.195-.05c-1.036-.313-1.993-.864-2.536-1.837a1.63 1.63 0 0 1-.093-1.144c.3-.77.949-1.117 1.664-1.434.23-.094.46-.14.707-.18.152-.152.523-.082.726-.082m0 0" style="stroke:none;fill-rule:nonzero;fill:#010101;fill-opacity:1"/><path d="M54.676 30.777q.17.116.336.239c.066.043.066.043.133.093.414.32.742.828.843 1.344.051.442.028.797-.215 1.176-.32.383-.793.637-1.28.723-.919.078-1.723-.086-2.473-.657-.336-.316-.61-.652-.684-1.117.039-.312.148-.57.27-.863.113-.313.183-.625.242-.95.043-.199.07-.316.238-.433.922-.18 1.793-.043 2.59.445m0 0" style="stroke:none;fill-rule:nonzero;fill:#030303;fill-opacity:1"/><path d="M38.457 22.75c.488.281.84.648.996 1.195.07.57.047 1.078-.262 1.57q-.053.088-.105.18c-.367.36-.902.688-1.43.7-.531-.016-1.039-.196-1.426-.567-.363-.43-.593-.973-.574-1.543.078-.531.344-.96.739-1.32.625-.465 1.343-.55 2.062-.215m0 0" style="stroke:none;fill-rule:nonzero;fill:#040404;fill-opacity:1"/><path d="M70.484 14.965c.063-.004.13-.004.192-.004 1.113.008 1.867.504 2.633 1.266q.07.068.148.136c.176.168.29.274.371.508v.14c-.133.137-.418.079-.605.079q-.17.004-.34.008-.271.002-.535.004c-.97.011-1.868.101-2.793.402l-.125.039c-.2.062-.375.133-.559.23-.191.09-.305.106-.512.09-.652-1.273-.652-1.273-.57-1.707.18-.465.648-.68 1.066-.886a3.8 3.8 0 0 1 1.63-.305m0 0" style="stroke:none;fill-rule:nonzero;fill:#fafafa;fill-opacity:1"/><path d="M31.531 22.668c.442.258.727.621.903 1.098.132.617.039 1.144-.29 1.691-.289.383-.71.566-1.156.715-.586.055-1.074.035-1.562-.328-.469-.426-.676-.887-.715-1.52 0-.539.16-.898.52-1.293.68-.68 1.425-.773 2.3-.363m0 0" style="stroke:none;fill-rule:nonzero;fill:#040404;fill-opacity:1"/><path d="m28.645 31.996.402.024q.116.004.226.015c.227.016.446.05.665.086a20 20 0 0 0 1.64.176l.176.016c1.129.078 2.262.093 3.394.093.082.004.16.004.247.004 1.164 0 2.312-.055 3.472-.152-.113.375-.25.578-.586.785-.8.395-1.66.531-2.539.652l-.137.024c-.5.066-1.003.058-1.507.058h-.149a12 12 0 0 1-2.562-.25c-2.012-.386-2.012-.386-2.547-1.007-.195-.333-.195-.333-.195-.524M32.688 36.3q.1 0 .207-.003c.18.016.18.016.308.148 0 .211 0 .211-.023.465l-.024.254c-.008.098-.008.098-.02.195.067.024.13.043.196.067v-.16c.098-.348.332-.57.586-.82.305-.153.71-.098 1.043-.067.277.101.453.254.652.465.145.422.117.84-.054 1.25-.266.476-.735.785-1.243.965a5 5 0 0 1-.265.066l-.16.047c-.649.078-1.344.035-1.887-.36-.344-.289-.649-.601-.707-1.062-.02-.379.05-.676.277-.977.352-.328.63-.468 1.113-.472m0 0" style="stroke:none;fill-rule:nonzero;fill:#f9f9f9;fill-opacity:1"/><path d="M72.395 18.168h.144c.89 0 1.895.012 2.656.543.13.148.22.305.305.48.023.047.05.09.074.137.625 1.215.625 1.215.469 1.742-.332-.117-.617-.3-.914-.48a7 7 0 0 0-1.309-.633c-.187-.066-.187-.066-.394-.16-1.563-.676-3.278-.535-4.938-.496.184-.418.64-.559 1.043-.719.2-.07.399-.129.602-.187l.14-.04c.696-.183 1.407-.183 2.122-.187m0 0" style="stroke:none;fill-rule:nonzero;fill:#f7f7f7;fill-opacity:1"/><path d="M64.41 25.836c.278.227.465.41.531.777.024.367.004.617-.234.903-.48.468-1.016.511-1.656.507-.723-.058-1.278-.378-1.75-.918-.254-.304-.258-.543-.254-.933.031-.3.121-.395.348-.59.859-.672 2.203-.324 3.015.254M70.156 21.121c.625-.02 1.117.055 1.649.399.265.273.41.476.43.863a1.04 1.04 0 0 1-.13.504c-.656.566-1.406.664-2.25.601-.62-.078-1.183-.218-1.605-.718-.129-.196-.145-.356-.152-.59.129-.395.414-.657.773-.852.418-.172.84-.183 1.285-.207m0 0" style="stroke:none;fill-rule:nonzero;fill:#040404;fill-opacity:1"/><path d="M63.875 29.863c.29.242.547.496.594.887.015.457-.086.824-.387 1.18-.39.37-.848.593-1.387.625-.504-.024-.902-.254-1.238-.625-.246-.313-.355-.559-.344-.97.063-.448.27-.769.621-1.046.59-.398 1.54-.445 2.141-.05m0 0" style="stroke:none;fill-rule:nonzero;fill:#030303;fill-opacity:1"/><path d="M68.945 13.348c.418.226.418.226.586.394v.13c-.066.019-.129.034-.195.054-.77.226-1.55.488-2.145 1.054-.214.11-.421.11-.656.067a2.5 2.5 0 0 1-.484-.3q-.124-.091-.254-.18c-.059-.047-.059-.047-.121-.09a14 14 0 0 0-.594-.391c-.11-.086-.11-.086-.238-.281-.035-.317-.04-.453.12-.73 1.075-1.102 2.817-.27 3.981.273m0 0" style="stroke:none;fill-rule:nonzero;fill:#f9f9f9;fill-opacity:1"/><path d="M42.45 42.79c.226.097.39.237.577.398.657.558 1.364.902 2.157 1.238v.133l-.125.023q-.276.047-.551.102l-.196.035-.187.035c-.082.02-.082.02-.168.035-.145.023-.145.023-.273.094-.782.12-1.563.156-2.356.152h-.156c-2.2-.004-2.2-.004-2.824-.347.261-.094.52-.16.789-.215 1.242-.25 2.422-.754 3.312-1.684m0 0" style="stroke:none;fill-rule:nonzero;fill:#f6f6f6;fill-opacity:1"/><path d="M59.676 32.262c.344.203.613.465.742.847.031.461-.04.782-.34 1.157-.45.37-.91.507-1.488.5-.492-.059-.86-.317-1.164-.7-.207-.32-.168-.722-.133-1.09a1.68 1.68 0 0 1 .793-.792c.488-.157 1.125-.141 1.59.078M73.902 23.73c.364.2.649.43.836.805.028.192.028.192.028.395v.199c-.04.297-.168.465-.375.672-.457.215-1.047.164-1.532.035-.43-.18-.761-.5-.984-.906-.098-.293-.113-.547.012-.832.457-.582 1.351-.649 2.015-.368M51.668 34.46c.328.185.602.454.742.806.043.343.086.73-.133 1.02-.422.347-.824.394-1.359.382-.395-.055-.648-.258-.91-.55-.23-.329-.32-.579-.27-.981.407-.856 1.09-1.047 1.93-.676M67.04 26.852h.16c.44.02.765.12 1.093.433.227.246.344.485.371.82-.016.286-.125.446-.312.649-.32.262-.622.332-1.028.324h-.136c-.438-.015-.72-.098-1.028-.402-.285-.324-.363-.528-.36-.965.036-.324.208-.496.45-.695.277-.157.48-.168.79-.164m0 0" style="stroke:none;fill-rule:nonzero;fill:#040404;fill-opacity:1"/><path d="M55.406 35.25c.371.285.371.285.407.547.015.379-.06.594-.31.89-.237.2-.437.235-.745.235q-.1.005-.203.004c-.305-.04-.508-.18-.696-.422-.218-.281-.23-.414-.191-.758.07-.25.223-.406.434-.543.394-.14.933-.156 1.304.047m0 0" style="stroke:none;fill-rule:nonzero;fill:#060606;fill-opacity:1"/><path d="M62.371 12.027h.887c.21.004.406.012.61.078a49 49 0 0 1-.427.825c-.093.156-.093.156-.226.222a1.85 1.85 0 0 1-.906-.144c-.907-.344-1.91-.41-2.868-.512v-.129c.965-.281 1.93-.351 2.93-.34m0 0" style="stroke:none;fill-rule:nonzero;fill:#f6f6f6;fill-opacity:1"/><path d="M30.469 23.098c.117.074.117.074.195.195.027.195.027.195 0 .395-.105.125-.105.125-.262.195-.203-.008-.203-.008-.39-.067-.13-.195-.13-.195-.117-.359.101-.316.246-.41.574-.36m0 0" style="stroke:none;fill-rule:nonzero;fill:#eeeeef;fill-opacity:1"/><path d="M37.11 23.227c.421.03.421.03.585.195.024.187.024.289-.074.45-.18.112-.305.1-.512.073-.125-.07-.125-.07-.195-.195.016-.238.023-.352.195-.523m0 0" style="stroke:none;fill-rule:nonzero;fill:#f4f3f4;fill-opacity:1"/><path d="M36.652 40.043c-.062.098-.062.098-.129.195.356.035.356.035.715.067v.066h-1.82v-.133c.18-.043.363-.09.543-.133l.156-.039c.39-.097.39-.097.535-.023m0 0" style="stroke:none;fill-rule:nonzero;fill:#2a2929;fill-opacity:1"/><path d="M57.55 40.438c-.062.128-.062.128-.26.203q-.1.03-.192.054v-.129h-1.891V40.5c.273-.008.543-.02.813-.027q.14-.007.277-.008.2-.011.398-.016l.242-.008c.208-.004.41-.007.614-.004m0 0" style="stroke:none;fill-rule:nonzero;fill:#acadad;fill-opacity:1"/><path d="M65.3 32.191c.044.024.087.043.13.067l-.094.176c-.156.359-.137.742-.145 1.129a25.927 25.927 0 0 0-.023.79l-.063-.001q-.003-.063-.007-.133l-.024-.578q-.001-.104-.008-.207-.001-.096-.007-.196-.001-.086-.008-.18c-.004-.148-.004-.148-.078-.277.066-.14.066-.14.16-.304l.094-.16c.023-.044.046-.083.074-.126m0 0" style="stroke:none;fill-rule:nonzero;fill:#646364;fill-opacity:1"/><path d="M36.652 40.043c-.082.129-.082.129-.195.262h-.258v-.133q-.098-.031-.195-.063l.25-.07q.07-.02.144-.039c.125-.023.125-.023.254.043m0 0" style="stroke:none;fill-rule:nonzero;fill:#222;fill-opacity:1"/><path d="M45.313 37.754q.063.03.128.066c-.062.196-.062.196-.175.258q-.07.026-.141.05-.069.027-.137.052c-.133.03-.133.03-.328-.035l.32-.2c.06-.039.118-.074.176-.113zm0 0" style="stroke:none;fill-rule:nonzero;fill:#dbdbdc;fill-opacity:1"/></svg>