<svg xmlns="http://www.w3.org/2000/svg" width="213" height="169"><path fill="#FDFDFD" d="M0 0h213v169H0z"/><path fill="#040404" d="M35 55c5.878.347 8.612 2.752 12.75 6.563q1.842 1.635 3.688 3.269l1.82 1.627c2.447 2.164 4.953 4.235 7.492 6.291l2.36 1.922c1.778 1.52 1.778 1.52 3.89 1.328 1.307-1.558 1.307-1.558 2.625-3.562 6.344-8.652 14.255-14.334 24.742-17.051 13.546-1.99 27.115-.487 38.633 7.3 4.806 3.77 8.074 7.979 11 13.313 4.888-1.516 8.013-4.349 11.75-7.687q1.864-1.623 3.73-3.243L163 62a287 287 0 0 1 5.063-4.312c.65-.554 1.301-1.107 1.972-1.676 2.735-1.409 4.067-.928 6.965-.012 1.726 1.759 1.726 1.759 3.27 4.05l1.741 2.54 1.802 2.722 1.877 2.762c1.785 2.632 3.55 5.277 5.31 7.926l2.445 3.645a662 662 0 0 1 3.797 5.742c1.229 1.827 2.51 3.619 3.828 5.383l1.993 2.668 1.785 2.308c1.453 2.843 1.075 4.263.152 7.254-2.184-.098-2.184-.098-5-1a59 59 0 0 1-5.062-6.437l-1.41-1.99c-5.27-7.493-10.302-15.151-15.333-22.805-.962-1.423-1.99-2.801-3.039-4.163C174 65 174 65 174 63l-2.02 1.652-5.816 4.758q-3.104 2.54-6.203 5.086l-2.899 2.379-2.652 2.18C152 81 152 81 149.746 82.445 147.473 84.47 147.478 86.063 147 89l11.895-8.76 2.558-1.885 2.349-1.73c2.214-1.583 2.214-1.583 4.17-3.397C170 72 170 72 172.513 71.965c3.486 1.45 4.383 3.346 6.272 6.59l1.025 1.725a528 528 0 0 1 3.252 5.595q1.693 2.88 3.392 5.756 1.137 1.925 2.268 3.854c3.771 6.414 7.802 12.657 11.962 18.827l1.386 2.126 1.212 1.808c.928 2.266.51 3.487-.282 5.754l-4 1c-2.656-3.218-4.993-6.449-7.137-10.027l-1.738-2.882-1.812-3.028c-4.803-7.973-9.691-15.858-14.836-23.614C172 83 172 83 172 81c-5.482 2.983-10.453 6.376-15.437 10.125l-2.217 1.629-2.092 1.566-1.896 1.415L149 97v2l1.573-.842a857 857 0 0 1 7.114-3.72l2.475-1.327 2.412-1.24 2.206-1.158c2.899-.93 4.376-.801 7.22.287 1.738 2.151 1.738 2.151 3.313 5.012l1.802 3.206 1.885 3.47q1.477 2.66 2.962 5.314 1.011 1.81 2.016 3.625a319 319 0 0 0 6.928 11.818l1.836 3.005a599 599 0 0 0 3.485 5.605l1.554 2.558 1.377 2.212c1.065 2.75.643 4.384-.158 7.175-2.29-.191-2.29-.191-5-1-1.71-2.027-1.71-2.027-3.375-4.937l-.96-1.645a421 421 0 0 1-2.263-3.949c-1.698-2.99-3.423-5.966-5.148-8.942a4072 4072 0 0 1-9.663-16.779A482 482 0 0 0 168 99c-4.679 1.42-8.927 3.372-13.25 5.625C148.268 108 148.268 108 146 108l-.937 3.875c-3.217 9.5-10.625 15.493-19.29 19.969-6.63 2.764-12.49 3.515-19.585 3.469l-2.695-.018c-11.37-.21-20.918-3.347-29.5-11.111-3.239-3.47-5.265-6.697-7.016-11.098-3.065-6.266-7.544-8.152-13.79-10.711l-2.966-1.309A328 328 0 0 0 43 98l-.802 2.147c-1.256 2.99-2.732 5.696-4.358 8.501l-1.893 3.278q-4.047 6.949-8.103 13.892a501 501 0 0 0-4.66 8.229l-2.309 4.078-.996 1.86c-.95 1.648-.95 1.648-2.879 4.015-2.742.367-2.742.367-5 0-.94-2.516-1.14-3.645-.142-6.185l1.396-2.393 1.571-2.735 1.738-2.937 1.759-3.038q1.857-3.202 3.732-6.396c1.965-3.348 3.914-6.706 5.86-10.066A3923 3923 0 0 1 35.2 97.734l1.495-2.555A128 128 0 0 1 40 90c5.565.56 9.927 2.635 14.875 5.063l2.375 1.142Q60.129 97.595 63 99c-3.129-4.354-6.586-7.126-10.937-10.125l-1.842-1.3C46.89 85.238 43.52 83.043 40 81l-1.003 1.718C30.643 97.004 22.182 111.226 13 125l-5-1c-.251-3.879.225-5.976 2.316-9.238l1.546-2.452 1.7-2.623 3.555-5.601 1.905-2.978a966 966 0 0 0 6.11-9.756l2.05-3.304 3.967-6.403 1.831-2.938 1.622-2.61C36 74 36 74 38 72c4.778.168 7.822 2.853 11.375 5.75q1.72 1.365 3.441 2.727l1.657 1.32C57.24 83.977 60.113 85.988 63 88c-.23-3.665-.908-4.906-3.52-7.578a178 178 0 0 0-3.292-2.672c-.576-.47-1.15-.942-1.743-1.427C48.762 71.71 42.912 67.314 37 63l-.802 2.197c-1.209 2.828-2.614 5.119-4.358 7.647l-1.894 2.761-2.009 2.895-2.037 2.961Q22.956 85.735 20 90l-2.992 4.336Q14.012 98.674 11 103l-5-1c-.622-1.803-.622-1.803-1-4a72 72 0 0 1 4.813-6.812q1.54-2.02 3.074-4.043l1.583-2.084c2.339-3.15 4.503-6.406 6.655-9.686C25.646 68.509 30.294 61.741 35 55"/><path fill="#F6F6F6" d="M79 100h6q.971 2.155 1.938 4.313l1.09 2.425C89 109 89 109 90 112l4-9h23c3 7 3 7 3 10h2l.367-1.828.508-2.422.492-2.39c.625-2.328 1.481-4.25 2.633-6.36h6c1 3 1 3 .32 5.016-3.762 7.033-8.675 12.041-16.113 15.152-7.149 1.855-17.047 2.392-23.832-.856-1.777-1.12-1.777-1.12-3.375-2.312l-3.187-2.25c-3.241-3.169-6.115-6.5-7.813-10.75.371-2.246.371-2.246 1-4"/><path fill="#F8F8F8" d="M101.875 70.188c3.23 2.754 4.891 4.87 5.41 9.183.17 4.956.125 8.75-3.285 12.629-3.82 3.357-7.657 3.568-12.559 3.422-4.678-.808-6.993-3.514-9.816-7.234-1.463-5.12-1.31-8.842 1.063-13.5 5.29-6.148 11.637-7.619 19.187-4.5"/><path fill="#F9F9F9" d="M124 71c3.025 1.736 5.418 3.836 7 7 .681 6.813.681 6.813-1.047 9.824-3.13 3.804-4.82 5.063-9.703 5.551-3.35-.024-5.099-.619-7.687-2.75-3.446-3.53-3.959-5.553-3.922-10.52.635-3.72 2.699-5.508 5.359-8.105 3.229-1.614 6.51-1.596 10-1"/><path fill="#EBEBEB" d="M126 100h6c1 3 1 3 .18 5.121-4.65 8.257-4.65 8.257-9.18 10.879l-3-1v-2h2l.367-1.828.508-2.422.492-2.39c.625-2.328 1.481-4.25 2.633-6.36"/><path fill="#0B0B0B" d="M97 82c4.556.556 4.556.556 6 2 .188 2.438.188 2.438 0 5l-2 2c-3.297-.33-4.623-.623-7-3 .367-2.935.864-3.864 3-6"/><path fill="#050505" d="M115.438 79.813C118 80 118 80 120 82c-.556 4.556-.556 4.556-2 6-2.437.188-2.437.188-5 0l-2-2c.72-5.902.72-5.902 4.438-6.187"/><path fill="#DCDCDC" d="M103 85c2 3 2 3 1.875 5.063C104 92 104 92 100 94z"/><path fill="#CECECE" d="M109 84h2l2 3c2.05 1.192 2.05 1.192 4 2l-5 1c-3-3.75-3-3.75-3-6"/></svg>