<svg xmlns="http://www.w3.org/2000/svg" width="100" height="67"><path d="M0 0h100v67H0zm0 0" style="stroke:none;fill-rule:nonzero;fill:#fdfdfd;fill-opacity:1"/><path d="M78.055 20.191c1.91 1.66 2.992 3.836 3.21 6.36a8.7 8.7 0 0 1-.73 4.07l-.058.125c-.473 1.07-1.149 1.988-1.961 2.82a6 6 0 0 1-.16.168c-.774.809-1.676 1.371-2.641 1.926q-.07.042-.145.082c-1.445.836-3.09 1.278-4.738 1.488-.05.008-.102.012-.152.02-.45.05-.89.043-1.34.027l-.594-.011c-.137-.004-.273-.012-.406-.016-.793-.074-.793-.074-1.504.188a2.8 2.8 0 0 0-.43.64q.047.036.094.067c.586.425 1.027.921 1.453 1.507a10 10 0 0 0 1.75 1.801c.594.48 1.164 1.067 1.293 1.856.016.543-.121 1-.492 1.398-1.555 1.367-4.219 1.379-6.164 1.281-1.457-.097-3.445-.312-4.485-1.453-.375-.457-.398-.972-.351-1.547.066-.187.066-.187.133-.328l-.11.047c-1.445.594-2.968.98-4.515 1.195.105.254.265.403.457.59.656.703 1.027 1.348 1.004 2.332-.063.524-.364.875-.758 1.207-1.395.969-3.332 1.239-4.985 1.254h-.199q-.312.005-.629.004h-.215c-1.07 0-2.09-.043-3.136-.281l-.153-.031c-1.136-.239-2.437-.637-3.168-1.606-.3-.57-.28-1.23-.152-1.855.18-.516.48-.97.766-1.43.226-.375.41-.746.57-1.156.531-1.344 1.477-2.512 2.785-3.149q-.293.061-.594.121-.08.018-.167.035l-.165.036q-.075.016-.152.03c-.164.04-.164.04-.34.106-.242.075-.48.114-.726.145-.051.008-.102.012-.153.02q-.157.021-.316.042l-.469.063q-.398.053-.797.101c-.101.012-.203.028-.3.04-1.086.148-2.172.125-3.266.117-.399-.004-.797-.004-1.2-.008h-.413c-.086 0-.168-.004-.254-.004h-.223c-.16-.012-.16-.012-.23.07.015.664.437 1.196.879 1.653.097.117.097.117.097.246.059.023.059.023.117.05.145.083.145.083.262.215.172.157.266.168.492.192l.219.023c.082.008.16.012.242.02l.25.023c1.274.113 2.551.149 3.824.196a2.1 2.1 0 0 1-.199.53c-.023.048-.05.09-.074.137q-.042.082-.09.168-.074.145-.156.29c-.043.082-.09.167-.133.25a21 21 0 0 1-2.871-.137l-.195-.024a51 51 0 0 1-3.703-.558q-.111-.022-.227-.043c-1.004-.188-1.984-.453-2.965-.742.02.035.035.07.055.105l.07.14q.036.066.07.137c.196.43.192.926.055 1.371-.46.817-1.332 1.18-2.207 1.422q-.211.059-.43.11-.064.013-.132.031c-.97.207-1.95.238-2.938.234h-.574c-.672 0-1.317-.023-1.977-.148q-.088-.016-.175-.031c-1.23-.215-2.782-.52-3.59-1.563-.367-.547-.403-1.027-.336-1.68.21-.82.773-1.515 1.3-2.156l.247-.304q.064-.078.129-.16c.109-.145.214-.286.32-.434.715-1.008 1.633-2.004 2.82-2.442v-.129q-.159-.062-.324-.132c-.078.066-.078.066-.086.195-.043.133-.043.133-.16.21l-.149.06q-.08.031-.16.062c-.082.031-.082.031-.16.063l-.137.058c-1.136.465-2.496.223-3.601-.215-1.281-.574-2.309-1.535-2.914-2.816a2.3 2.3 0 0 1-.121-1.149c.117-.195.191-.293.39-.394.395-.055.633.121.953.316.883.512 1.625.567 2.63.535l-.083-.203q-.057-.135-.11-.27c-.019-.046-.034-.089-.054-.136-.289-.723-.316-1.476-.035-2.215.414-.89 1.004-1.386 1.797-1.922l.125-.086c.117-.074.117-.074.293-.16.234-.172.324-.41.445-.672a15 15 0 0 1 1.235-1.996 16 16 0 0 1 1.593-1.89c.047-.047.09-.094.137-.14.54-.556 1.074-1.09 1.688-1.563.062-.047.12-.098.187-.149 2.488-1.992 5.496-3.258 8.606-3.863.12-.024.12-.024.246-.047.242-.047.484-.086.726-.129q.11-.017.227-.039c.8-.121 1.605-.113 2.414-.113.246.004.492 0 .738 0a20.2 20.2 0 0 1 9.094 2.133 16.5 16.5 0 0 1 3.02 1.906q.204.158.41.312c.59.465 1.12.996 1.652 1.528.039.039.074.078.117.117q.106.104.207.215.107.11.219.215c.113.242.02.472-.047.718-.027.106-.05.207-.078.313l-.035.148a5 5 0 0 0-.098.531.87.87 0 0 1-.441-.367 9 9 0 0 0-.797-.894l-.133-.133c-.453-.477-.453-.477-1.035-.738-.219.011-.438.02-.656.039-.043.004-.09.004-.133.008-.785.062-1.645.164-2.203.78-.254.673.035 1.38.254 2.024l.046.137c.172.508.375 1 .614 1.488q.032.063.062.133c.117.234.215.406.45.531.34.094.648.047.956-.12q.316-.19.625-.395c.54-.352 1.278-.66 1.934-.66q-.094.293-.195.585-.025.08-.051.16c-.106.29-.195.446-.477.587a6.6 6.6 0 0 0-.902.601c-1.668 1.254-3.41 2.266-5.367 2.992-.442.137-.442.137-.82.371-.028.325.054.563.18.852.202.508.3 1.016.382 1.555q.011.088.027.175.013.08.02.16a.55.55 0 0 0 .238.336c1.531-.074 3.309-1.8 4.36-2.816.058-.05.058-.05.113-.105 1.867-1.797 3.265-4.22 3.691-6.797q.043-.263.102-.52c.054-.226.094-.453.133-.683.304-1.825 1.004-3.563 2.21-4.98l.094-.106c1.703-1.977 4.051-3.098 6.582-3.59.145-.028.285-.063.43-.094 3.645-.812 8.21.258 11.055 2.652m0 0" style="stroke:none;fill-rule:nonzero;fill:#020202;fill-opacity:1"/><path d="M63.598 27.68c.37.23.738.504.922.914v.195q-.07.002-.141.004c-.402.023-.774.066-1.098.324-.078.133-.078.133-.129.262l.098-.067c.219-.09.426-.09.656-.09q.063-.002.133-.003c.629-.004 1.16.328 1.684.644q.151.095.308.184c.051.031.098.062.153.094.156.093.156.093.336.156.433.172.433.172.546.422.051.207.079.41.106.617q.034.223.074.445.018.104.035.215c.188.973.817 1.922 1.598 2.516.504.34 1.02.465 1.621.457.059 0 .113 0 .172-.004.441-.008.812-.074 1.203-.285.047-.028.098-.055.145-.078 1.168-.704 1.835-1.934 2.394-3.13-.187.11-.352.22-.52.356-.976.711-2.59.59-3.718.418-.95-.164-1.758-.508-2.387-1.25-.082-.113-.082-.113-.082-.246.078.02.152.035.23.05q.57.111 1.137.216l.215.035c2.191.379 4.723.535 6.809-.348.336-.137.336-.137.53-.148.173.082.173.082.345.191.086.059.086.059.175.113l.13.09a2.7 2.7 0 0 0-.52-.656c.113-.156.199-.25.394-.285.325-.008.567.031.844.219.281.386.25.789.195 1.246-.187.582-.55 1.015-.976 1.437l-.176.176c-1.082 1.039-2.394 1.773-3.777 2.316l-.282.118c-2.886 1.199-6.378.832-9.308.007-.094-.023-.094-.023-.188-.05a5.4 5.4 0 0 1-.894-.344 6 6 0 0 0-.871-.258c.976.926 2.183 1.441 3.449 1.832-.094.297-.266.508-.465.738l-.101.114q-.093.111-.192.222-.11.129-.215.258c-.48.57-.882.945-1.629 1.086l-.238.059c-1.262.277-2.836.25-3.969-.45a.9.9 0 0 1-.285-.39c.07-.086.07-.086.149-.172 1.078-1.238 2.007-2.586 2.472-4.18l.047-.168c.285-1.039.285-2.054.285-3.125.004-.988.024-1.84.692-2.629.148-.133.285-.222.457-.328q.053-.034.113-.074c.371-.148.934-.129 1.309.012m0 0" style="stroke:none;fill-rule:nonzero;fill:#fbfbfb;fill-opacity:1"/><path d="M47.695 26.023q.088 0 .176-.003c.574-.004.992.14 1.418.543.52.55.781 1.199 1.035 1.898l.055.14c.258.704.457 1.446.152 2.176-.648 1.102-2.547 1.621-3.71 1.922-.383.09-.762.168-1.145.242-.145.032-.285.063-.43.098-.586.137-1.152.152-1.754.152q-.117.005-.246.004c-.723-.008-1.434-.07-1.969-.61-.672-1.105-.445-2.581-.195-3.796l.031-.152c.137-.657.403-1.2.946-1.614a3 3 0 0 1 1.046-.386l.16-.032c.63-.113 1.262-.214 1.891-.316l.164-.023c.793-.13 1.57-.235 2.375-.243m0 0" style="stroke:none;fill-rule:nonzero;fill:#fcfcfc;fill-opacity:1"/><path d="M70.45 20.254c.823.7 1.402 1.703 1.554 2.777.101 1.274-.195 2.461-1.035 3.45-.719.789-1.73 1.367-2.813 1.425-.844.016-1.527-.004-2.27-.426l-.195-.101c-1.007-.582-1.57-1.555-1.89-2.645-.278-1.156-.145-2.304.449-3.332.691-1.02 1.703-1.77 2.922-2.007 1.187-.16 2.312.144 3.277.859m0 0" style="stroke:none;fill-rule:nonzero;fill:#fbfbfb;fill-opacity:1"/><path d="M35.836 25.703q.104.023.215.05.531.129 1.05.31c.188.062.38.109.575.156.59.152 1.094.328 1.547.758.566.98.21 2.05-.055 3.078-.18.672-.363 1.293-.758 1.875l-.094.14c-.32.418-.777.63-1.273.774-.309.035-.617.035-.926.035h-.137c-.917 0-1.765-.156-2.648-.426l-.164-.05c-.766-.239-1.438-.598-1.86-1.317-.226-.543-.003-1.191.204-1.707.554-1.356 1.386-3.086 2.734-3.797.508-.195 1.086-.008 1.59.121M46.227 21.813l.386.304c.094.07.094.07.184.14 1.207.966 1.207.966 1.379 1.43.05.45.05.45-.121.704-.48.343-1.063.476-1.633.609q-.104.023-.215.05c-.43.098-.86.188-1.293.259l-.137.023c-.906.137-1.832.133-2.75.137q-.3-.001-.605.004c-1.613.007-3.992-.067-5.262-1.22a.74.74 0 0 1-.086-.55c.29-.742 1.059-1.219 1.688-1.652l.117-.082c.898-.617 1.828-1.121 2.875-1.422.094-.031.094-.031.191-.067 1.836-.558 3.809.239 5.282 1.332m0 0" style="stroke:none;fill-rule:nonzero;fill:#fcfcfc;fill-opacity:1"/><path d="M76.738 20.633a3.76 3.76 0 0 1 1.516 1.547l.094.172c.53 1.05.554 2.261.21 3.37-.312.923-.906 1.59-1.761 2.036-.633.277-1.406.293-2.059.074-.98-.426-1.699-1.21-2.105-2.203-.363-1.063-.414-2.434.027-3.484.078-.149.16-.286.258-.422l.102-.153c.906-1.254 2.332-1.613 3.718-.937M35.223 34.809c.09.007.09.007.183.02q.292.028.59.07.218.027.434.054a30 30 0 0 1 .586.074c.562.067 1.12.11 1.683.121.051 0 .098.004.149.004.242.004.488.008.73.008q.134.005.274.004c.117.004.117.004.242.004.242.039.32.102.465.293.191.617.144 1.332.152 1.969q-.001.124.004.254v.45299999999999996a1.1 1.1 0 0 1-.344.718c-.164.09-.273.102-.465.098h-.195q-.11.001-.219-.004h-.226a32 32 0 0 1-3.934-.312l-.152-.024q-.47-.065-.934-.14-.093-.016-.191-.032a1.3 1.3 0 0 1-.563-.21c-.23-.364-.133-.876-.054-1.278.12-.422.292-.824.472-1.223q.034-.07.063-.14c.293-.625.55-.856 1.25-.781M47.527 34.48c.485.426.594 1.31.7 1.915l.023.148a8 8 0 0 1 .074.566c.016.25-.004.364-.152.567-1.414 1.05-4.317 1.168-6.04 1.215q-.122.004-.245.007c-.219-.03-.219-.03-.36-.156-.175-.297-.164-.562-.168-.898q-.004-.102-.007-.203c-.004-.145-.004-.286-.008-.426a36 36 0 0 0-.016-.653c-.004-.136-.004-.273-.008-.414 0-.062-.004-.128-.004-.195-.004-.441-.004-.441.125-.66.215-.125.387-.137.633-.152l.14-.012q.152-.013.298-.02c.261-.015.523-.039.781-.058l.156-.012a18 18 0 0 0 3.028-.5c.695-.164.695-.164 1.05-.059M29.484 33.383q.13.047.266.09l.14.047c.934.316 1.872.582 2.833.796.043.008.09.02.132.028q.177.041.352.078c.191.058.305.125.453.258-.039.297-.168.527-.316.789a4.94 4.94 0 0 0-.617 2.07c-.043.215-.043.215-.149.375-.219.14-.394.117-.644.086q-.076-.013-.153-.02c-1.152-.171-2.273-.582-3.37-.96q-.118-.037-.235-.079c-1.117-.39-1.117-.39-1.418-.691-.074-.836.37-1.523.879-2.152q.151-.178.308-.348c.051-.055.051-.055.098-.11.5-.527.777-.484 1.441-.257M31.234 24.64c.258.16.45.348.602.618.16.86-.438 1.765-.848 2.484-.031.059-.066.117-.097.176-1.282 2.254-1.282 2.254-2.18 2.637-.813.101-1.492-.075-2.152-.551-.418-.336-.418-.336-.485-.656-.035-.516.149-.856.422-1.278.027-.039.05-.078.078-.117.61-.957 1.34-1.773 2.13-2.578.05-.055.1-.105.155-.16.676-.68 1.446-1 2.375-.574M24.648 30.629c.184.066.262.144.391.289.606.637 1.379 1.05 2.145 1.46l.214.122q.093.047.192.102c.144.113.144.113.219.27-.008.171-.008.171-.137.323l-.188.16c-.629.59-1.043 1.329-1.316 2.141-.063.164-.063.164-.191.293-.383-.012-.622-.137-.922-.352q-.064-.043-.13-.085a9 9 0 0 1-1.163-1q-.065-.069-.137-.137c-.402-.426-.656-.914-.684-1.504.032-.676.41-1.18.887-1.633.547-.46.547-.46.82-.45m0 0" style="stroke:none;fill-rule:nonzero;fill:#fbfbfb;fill-opacity:1"/><path d="M57.227 39.191c.375.024.64.145.968.32.637.333 1.215.544 1.942.54h.144q.225-.005.45-.004h.304c.25 0 .5-.004.75-.004-.191.203-.367.367-.613.5l-.16.086a4 4 0 0 0-.176.09c-.09.047-.09.047-.184.093a17 17 0 0 1-1.863.801c-.047.02-.098.035-.144.055-.61.223-1.227.398-1.852.559-.102.027-.102.027-.203.05q-.093.023-.192.051l-.168.04c-.175.03-.175.03-.632.03v-2.093c.238-.13.472-.258.718-.39.16-.118.313-.227.461-.349.04-.03.075-.058.114-.09.172-.136.172-.136.336-.285m0 0" style="stroke:none;fill-rule:nonzero;fill:#f9f9f9;fill-opacity:1"/><path d="m32.879 39.906.16.024q.082.006.176.02.457.07.918.152c.41.07.824.14 1.242.187.066.008.129.02.195.027.125.012.25.028.375.04.414.05.414.05.578.199.063.136.11.261.153.406.195.621.496 1.144.918 1.644.101.122.101.122.101.188-1.629.031-3.375-.527-4.925-1q-.103-.031-.208-.063a4 4 0 0 1-.988-.445c.098-.222.223-.367.39-.539l.141-.14c.122-.106.122-.106.25-.106.016-.035.036-.07.051-.11l.082-.152q.047-.088.098-.183c.16-.14.16-.14.293-.149M46.094 20.547a4.2 4.2 0 0 1 1.21.129q.091.02.18.043c1.828.472 4.176 1.281 5.512 2.703q.037.133.063.265c-.461.165-.875.227-1.368.22-.09 0-.09 0-.18.003-1.14-.008-1.956-.652-2.812-1.336q-.285-.227-.57-.449l-.149-.117q-.584-.456-1.199-.875a4 4 0 0 1-.687-.586m0 0" style="stroke:none;fill-rule:nonzero;fill:#fafafa;fill-opacity:1"/><path d="M38.543 20.414c-.074.223-.102.238-.29.352q-.073.047-.148.09c-.05.035-.105.066-.156.097l-.34.211c-.062.04-.12.074-.183.113q-.475.302-.942.614-.099.063-.191.125l-.867.57c-.793.531-1.551.996-2.531.988h-.157a3.5 3.5 0 0 1-1.164-.215c0-.261 0-.261.094-.375a6.7 6.7 0 0 1 1.05-.726q.09-.048.177-.102c.816-.453 1.675-.855 2.57-1.11.148-.042.293-.093.441-.14.098-.035.196-.066.293-.101q.07-.024.145-.047c.703-.227 1.457-.39 2.199-.344m0 0" style="stroke:none;fill-rule:nonzero;fill:#f8f8f8;fill-opacity:1"/><path d="M70.11 22.96c.308.15.538.294.722.595l.07.11c.153.374.133.92.004 1.3-.187.316-.492.672-.847.789-.426.074-.809.07-1.192-.149a1.87 1.87 0 0 1-.637-.808c-.05-.453-.07-.926.168-1.328.45-.54 1.036-.73 1.711-.508m0 0" style="stroke:none;fill-rule:nonzero;fill:#040404;fill-opacity:1"/><path d="M51.836 45.578c.437.371.719.79.898 1.336.008.14.016.281.016.426q.005.11.004.226c-.02.2-.02.2-.098.317-.46.3-1.222.222-1.754.226q-.099.005-.199.004h-.363c-.145-.023-.145-.023-.262-.105-.098-.137-.101-.215-.105-.383v-.16c0-.055.004-.11.004-.168 0-.055-.004-.106-.004-.16.004-.594.148-1.059.558-1.492.38-.336.88-.282 1.305-.067m0 0" style="stroke:none;fill-rule:nonzero;fill:#fbfbfb;fill-opacity:1"/><path d="M75.043 23.234c.422.239.71.5.867.977.028.398.004.754-.195 1.11-.274.304-.535.566-.957.605-.41.012-.68.015-.996-.278-.39-.406-.48-.683-.485-1.257.008-.348.078-.551.309-.801.426-.38.902-.586 1.457-.356m0 0" style="stroke:none;fill-rule:nonzero;fill:#060606;fill-opacity:1"/><path d="M28.32 43.184c.477.207.793.562 1.035 1.015.13.395.11.864.07 1.274-.308.312-1.01.207-1.429.207h-.766c-.148-.008-.148-.008-.343-.075-.188-.378-.117-1.046-.008-1.449.273-.586.77-1.05 1.441-.972m0 0" style="stroke:none;fill-rule:nonzero;fill:#f9f9f9;fill-opacity:1"/><path d="M48.633 45.605c.351.16.594.45.781.786.125.351.148.664.148 1.035v.148c0 .371 0 .371-.148.516-.195.015-.379.02-.574.015h-.168c-1.41-.02-1.41-.02-1.73-.34-.079-.667.074-1.273.488-1.804.375-.367.687-.422 1.203-.356m0 0" style="stroke:none;fill-rule:nonzero;fill:#f9f9fa;fill-opacity:1"/><path d="M53.23 38.258c.829.312 1.313.719 1.7 1.512.375.94.304 1.988-.016 2.933a3.5 3.5 0 0 1-.355.61.94.94 0 0 1-.524-.458c-.012-.238.031-.449.133-.664.246-.722.117-1.62-.191-2.304-.368-.742-.95-1.106-1.7-1.414a6 6 0 0 0-.715-.196v-.132c.485-.243 1.184-.04 1.668.113m0 0" style="stroke:none;fill-rule:nonzero;fill:#f7f7f8;fill-opacity:1"/><path d="M66.277 42.727c.399.187.653.53.899.89.12.344.164.707.14 1.07-.066.122-.066.122-.195.196-.437.105-.902.086-1.348.086l-.246.008h-.23q-.105.004-.211.003c-.176-.03-.176-.03-.297-.152-.184-.34-.094-.77-.008-1.129.242-.734.75-1.058 1.496-.972m0 0" style="stroke:none;fill-rule:nonzero;fill:#f9f9f9;fill-opacity:1"/><path d="M25.86 43.18c.304.172.449.32.574.656.027.258.027.508.023.762 0 .07 0 .136.004.207q-.005.098-.004.195v.18a.65.65 0 0 1-.219.425c-.39.09-.843-.035-1.226-.117l-.164-.031c-.297-.062-.516-.11-.696-.375-.105-.457.047-.91.262-1.309.332-.5.836-.851 1.445-.593m0 0" style="stroke:none;fill-rule:nonzero;fill:#f8f8f8;fill-opacity:1"/><path d="M31.258 43.184c.418.289.734.671.84 1.175.058.516.058.516-.086.7-.336.261-.825.316-1.235.398-.043.008-.09.02-.132.027-.25.047-.454.07-.696-.011-.226-.227-.16-.551-.16-.86q-.004-.1-.008-.199c0-.453.067-.75.364-1.102.32-.285.726-.253 1.113-.128m0 0" style="stroke:none;fill-rule:nonzero;fill:#f9f9f9;fill-opacity:1"/><path d="M53.906 45.016c.477.148.797.59 1.043 1.011.082.301.117.575.063.887-.274.41-.895.672-1.367.785-.188-.027-.188-.027-.325-.066-.558-1.672-.558-1.672-.34-2.227.235-.375.512-.437.926-.39m0 0" style="stroke:none;fill-rule:nonzero;fill:#fafafa;fill-opacity:1"/><path d="M68.621 42.266c.43.207.742.601.973 1.011.078.27.144.543.066.825-.418.418-1.168.652-1.758.652-.285-.195-.289-.55-.351-.867-.074-.489-.13-.934.156-1.356q.053-.08.102-.156c.257-.172.511-.152.812-.11m0 0" style="stroke:none;fill-rule:nonzero;fill:#f9f9f9;fill-opacity:1"/><path d="M69.465 23.227c.215.023.3.043.457.195-.035.3-.035.3-.129.394-.191.012-.191.012-.39 0q-.065-.065-.133-.128c.023-.22.043-.305.195-.461M74.543 23.488c.215.024.3.043.457.2-.023.167-.023.167-.066.324-.22.043-.22.043-.454.066l-.132-.133c.023-.215.043-.3.195-.457M25.457 37.426l.453.261v.133l-.648.325v-.196q.095-.064.195-.129c.016-.203.016-.203 0-.394m0 0" style="stroke:none;fill-rule:nonzero;fill:#e9e9e9;fill-opacity:1"/><path d="M72.59 27.547c.137.027.137.027.262.062v.328h-.325a5 5 0 0 1 0-.328zm0 0" style="stroke:none;fill-rule:nonzero;fill:#1b1b1b;fill-opacity:1"/><path d="M47.332 39.781c-.355.16-.355.16-.719.328v-.261c.426-.141.426-.141.719-.067m0 0" style="stroke:none;fill-rule:nonzero;fill:#b3b3b2;fill-opacity:1"/></svg>